<svg width="14" height="13" viewBox="0 0 14 13" fill="none" xmlns="http://www.w3.org/2000/svg">
<path d="M8.94153 5.46904L8.94153 5.46904C8.83977 5.55809 8.78371 5.67755 8.78307 5.80074V9.38092C8.78308 9.51961 8.72676 9.65263 8.62612 9.75624L8.62339 9.75904L8.62329 9.75893L6.24456 11.8529C6.1585 11.9409 6.04479 12.003 5.91898 12.0318C5.79251 12.0608 5.65902 12.055 5.53624 12.0151C5.41345 11.9752 5.30648 11.9028 5.23039 11.8066C5.15422 11.7104 5.1128 11.595 5.11281 11.4761V5.71432C5.11216 5.59112 5.05611 5.47166 4.95434 5.38261L4.95371 5.38206L4.95372 5.38205L1.13989 1.93052C1.13982 1.93046 1.13975 1.9304 1.13968 1.93034C1.04975 1.85063 0.987701 1.7485 0.962513 1.63635C0.937286 1.52402 0.950426 1.40771 0.999899 1.30239C1.04931 1.19719 1.13245 1.10824 1.23782 1.04594C1.34316 0.983654 1.46649 0.950466 1.59236 0.950001L1.59255 0.95L12.4044 0.95L8.94153 5.46904ZM8.94153 5.46904L8.94211 5.46852M8.94153 5.46904L8.94211 5.46852M8.94211 5.46852L12.8601 1.93052C12.8602 1.93046 12.8603 1.9304 12.8603 1.93033C12.9505 1.85045 13.0126 1.74806 13.0376 1.63564C13.0628 1.52303 13.0493 1.40649 12.9995 1.30106C12.9497 1.19575 12.866 1.10684 12.7602 1.04476C12.6544 0.982704 12.5306 0.949918 12.4045 0.95L8.94211 5.46852ZM6.10537 10.6574V5.64617H6.10546L6.10529 5.64325C6.08547 5.30523 5.924 4.98709 5.65431 4.74984C5.65421 4.74975 5.65411 4.74967 5.654 4.74958L2.43919 1.83571H11.5578L8.2413 4.84175L8.2413 4.84174L8.24085 4.84217L8.18729 4.89193L8.18728 4.89191L8.18633 4.89285C7.93298 5.14117 7.79134 5.46423 7.7905 5.80057V5.80069V9.26052L6.10537 10.6574Z" fill="black" stroke="black" stroke-width="0.1"/>
</svg>
