<svg width="16" height="20" viewBox="0 0 16 20" fill="none" xmlns="http://www.w3.org/2000/svg">
<mask id="path-1-outside-1_1618_618" maskUnits="userSpaceOnUse" x="2" y="0" width="12" height="5" fill="black">
<rect fill="white" x="2" width="12" height="5"/>
<path d="M8 1C5.25714 1 4.19048 3 4 4H12C11.8095 3 10.7429 1 8 1Z"/>
</mask>
<path d="M4 4L3.01766 3.81289L2.79154 5H4V4ZM12 4V5H13.2085L12.9823 3.81289L12 4ZM4.98234 4.18711C5.11277 3.50236 5.88049 2 8 2V0C4.63379 0 3.26818 2.49764 3.01766 3.81289L4.98234 4.18711ZM8 2C10.1195 2 10.8872 3.50236 11.0177 4.18711L12.9823 3.81289C12.7318 2.49764 11.3662 0 8 0V2ZM12 3H4V5H12V3Z" fill="white" mask="url(#path-1-outside-1_1618_618)"/>
<rect x="0.5" y="4.5" width="15" height="15" stroke="white"/>
<path d="M8.1 8.36C6.23 8.36 5.36 10.6 5.36 12.18C5.36 13.74 6.18 16.1 8.1 16.1C10.02 16.1 10.84 13.74 10.84 12.18C10.84 10.6 9.97 8.36 8.1 8.36ZM8.1 15.65C6.49 15.65 5.84 13.54 5.84 12.18C5.84 10.99 6.49 8.81 8.1 8.81C9.71 8.81 10.36 10.99 10.36 12.18C10.36 13.54 9.71 15.65 8.1 15.65Z" fill="white"/>
</svg>
