<svg width="22" height="21" viewBox="0 0 22 21" fill="none" xmlns="http://www.w3.org/2000/svg">
<path d="M20.7924 9.74626H20.6207V6.63736C20.6196 6.21907 20.4545 5.81822 20.1614 5.52244C19.8683 5.22666 19.4711 5.06 19.0566 5.0589H18.2683V1.90615C18.2661 1.66506 18.1697 1.43459 17.9999 1.26489C17.8302 1.09519 17.601 0.99999 17.3621 1H3.53448C2.86389 1.00055 2.22081 1.26905 1.74585 1.74678C1.2709 2.22452 1.00273 2.87262 1 3.54934V15.987C1.00274 17.0519 1.42371 18.0723 2.17065 18.8245C2.9176 19.5767 3.92958 19.9995 4.98483 20H19.0669C19.4774 19.9995 19.871 19.8352 20.1621 19.5431C20.4531 19.2509 20.618 18.8546 20.6207 18.4403V14.8032H20.7903C21.0174 14.8038 21.2355 14.714 21.3974 14.5534C21.5593 14.3927 21.6519 14.1742 21.6552 13.9451V10.6169C21.6552 10.386 21.5643 10.1646 21.4025 10.0013C21.2407 9.83799 21.0212 9.74626 20.7924 9.74626ZM20.6207 13.7592H16.3545C15.9643 13.7592 15.5902 13.6028 15.3143 13.3244C15.0384 13.046 14.8834 12.6684 14.8834 12.2747C14.8834 11.881 15.0384 11.5034 15.3143 11.225C15.5902 10.9466 15.9643 10.7902 16.3545 10.7902H20.6207V13.7592ZM3.53448 2.04396H17.2338V5.07143H3.53448C3.13666 5.07143 2.75513 4.91195 2.47382 4.62807C2.19252 4.34418 2.03448 3.95916 2.03448 3.55769C2.03448 3.15622 2.19252 2.7712 2.47382 2.48732C2.75513 2.20344 3.13666 2.04396 3.53448 2.04396ZM19.5862 18.4403C19.5835 18.5777 19.5277 18.7085 19.4306 18.8049C19.3336 18.9013 19.203 18.9555 19.0669 18.956H4.98483C4.20395 18.9555 3.45508 18.6428 2.90214 18.0863C2.3492 17.5299 2.03722 16.7751 2.03448 15.987V5.60593C2.46812 5.93132 2.99411 6.10704 3.53448 6.10703H19.0586C19.1979 6.10812 19.3311 6.16427 19.4298 6.26344C19.5284 6.3626 19.5846 6.49686 19.5862 6.63736V9.74626H16.3545C15.69 9.74626 15.0527 10.0127 14.5828 10.4868C14.1129 10.961 13.849 11.6041 13.849 12.2747C13.849 12.9453 14.1129 13.5884 14.5828 14.0626C15.0527 14.5368 15.69 14.8032 16.3545 14.8032H19.5862V18.4403Z" fill="black" stroke="black" stroke-width="0.2"/>
<path d="M16.6461 11.6671C16.509 11.6671 16.3774 11.7221 16.2804 11.82C16.1834 11.9179 16.1289 12.0507 16.1289 12.1891V12.3582C16.1289 12.4967 16.1834 12.6294 16.2804 12.7273C16.3774 12.8252 16.509 12.8802 16.6461 12.8802C16.7833 12.8802 16.9149 12.8252 17.0119 12.7273C17.1089 12.6294 17.1634 12.4967 17.1634 12.3582V12.1891C17.1634 12.0507 17.1089 11.9179 17.0119 11.82C16.9149 11.7221 16.7833 11.6671 16.6461 11.6671Z" fill="black" stroke="black" stroke-width="0.2"/>
</svg>
