<svg width="277" height="105" viewBox="0 0 277 105" fill="none" xmlns="http://www.w3.org/2000/svg">
<g clip-path="url(#clip0_2416_2871)">
<path d="M224.585 0C253.528 0 277 23.51 277 52.5C277 81.49 253.528 105 224.585 105H52.4148C23.4719 105 0 81.49 0 52.5C0 23.51 23.4719 0 52.4148 0H224.585Z" fill="white"/>
<path d="M52.5013 90.5594C31.4813 90.5594 14.4414 73.5195 14.4414 52.4995C14.4414 31.4795 31.4813 14.4395 52.5013 14.4395C73.5213 14.4395 90.5614 31.4795 90.5614 52.4995C90.5714 73.5195 73.5313 90.5594 52.5013 90.5594ZM59.8513 33.4595V54.3896L45.1414 33.4595H33.4713V71.5196H45.1614V50.5896L59.8713 71.5196H71.5414V33.4595H59.8513Z" fill="#484848"/>
<path d="M240.908 28.3204L229.628 54.1804L217.168 28.3204H205.788L224.648 65.0204L217.068 82.0204H227.818L251.648 28.3204H240.908ZM189.918 69.4704H200.108V28.3104H189.918V31.6904C186.418 28.8704 182.458 27.4004 177.658 27.4004C166.068 27.4004 156.988 36.9204 156.988 48.8804C156.988 60.8404 166.068 70.3604 177.658 70.3604C182.458 70.3604 186.418 68.8904 189.918 66.0704V69.4704ZM179.138 62.0304C172.318 62.0304 167.188 56.3904 167.188 48.9004C167.188 41.4104 172.328 35.7704 179.138 35.7704C185.948 35.7704 191.088 41.4104 191.088 48.9004C191.098 56.3804 185.958 62.0304 179.138 62.0304ZM119.128 66.2904C122.558 68.9804 126.398 70.3804 131.028 70.3804C142.618 70.3804 151.698 60.8604 151.698 48.9004C151.698 36.9404 142.618 27.4204 131.028 27.4204C126.228 27.4204 122.268 28.8904 118.768 31.7104V28.3304H108.578V82.0304H119.118V66.2904H119.128ZM117.598 48.9004C117.598 41.4104 122.738 35.7704 129.548 35.7704C136.358 35.7704 141.498 41.4104 141.498 48.9004C141.498 56.3904 136.358 62.0304 129.548 62.0304C122.738 62.0304 117.598 56.3804 117.598 48.9004Z" fill="#484848"/>
</g>
<defs>
<clipPath id="clip0_2416_2871">
<rect width="277" height="105" fill="white"/>
</clipPath>
</defs>
</svg>
