<svg width="16" height="14" viewBox="0 0 16 14" fill="none" xmlns="http://www.w3.org/2000/svg">
<path d="M8.00095 14C7.77318 14 7.55388 13.9179 7.38258 13.7704C6.73599 13.2141 6.11295 12.6932 5.5633 12.2321L5.56046 12.2303C3.94823 10.8797 2.55625 9.71292 1.58778 8.56205C0.505423 7.27863 0 6.05866 0 4.7295C0 3.43582 0.450823 2.24294 1.26965 1.37021C2.09788 0.486287 3.23482 0 4.47059 0C5.39388 0 6.23999 0.287465 6.98446 0.854037C7.35999 1.13966 7.70071 1.4897 8.00095 1.89852C8.30118 1.4897 8.64187 1.13966 9.01646 0.854037C9.76093 0.288399 10.608 0 11.5313 0C12.7671 0 13.9031 0.486287 14.7313 1.37021C15.5492 2.24387 16 3.43582 16 4.7295C16 6.06053 15.4965 7.27863 14.4132 8.56205C13.4447 9.71199 12.0527 10.8787 10.4386 12.2303C9.88894 12.6914 9.26588 13.2169 8.61647 13.7704C8.44894 13.9179 8.22871 14 8.00095 14ZM4.47154 0.920321C3.50024 0.920321 2.60895 1.30114 1.96048 1.99372C1.30165 2.69563 0.939281 3.66729 0.939281 4.72856C0.939281 5.84771 1.36187 6.84833 2.31058 7.97494C3.22728 9.06328 4.59011 10.2067 6.1694 11.5302L6.17225 11.5321C6.72378 11.9951 7.34965 12.5206 8.00095 13.0797C8.65412 12.5178 9.28093 11.9932 9.83622 11.5302C11.4136 10.2067 12.7774 9.06328 13.6951 7.97494C14.6438 6.84927 15.0663 5.84957 15.0663 4.72856C15.0663 3.66729 14.7021 2.69657 14.0442 1.99372C13.3958 1.30114 12.5035 0.920321 11.5332 0.920321C10.8216 0.920321 10.1694 1.14248 9.59154 1.58117C9.0786 1.97227 8.71999 2.46603 8.50916 2.81232C8.40187 2.98967 8.21272 3.09606 8.0019 3.09606C7.79201 3.09606 7.60189 2.98967 7.49365 2.81232C7.28377 2.46603 6.92611 1.97227 6.41222 1.58117C5.83528 1.14248 5.18212 0.920321 4.47154 0.920321Z" fill="white"/>
</svg>
