<svg width="15" height="14" viewBox="0 0 15 14" fill="none" xmlns="http://www.w3.org/2000/svg">
<path d="M14.8617 5.15521C14.9182 5.19719 14.9602 5.25511 14.9822 5.32119C15.0044 5.38661 15.0059 5.45711 14.9863 5.52335C14.9668 5.5896 14.9272 5.64847 14.8727 5.69216L10.8781 8.77738L12.2484 13.5711C12.261 13.6166 12.2637 13.6641 12.2566 13.7107C12.2494 13.7573 12.2324 13.8019 12.2067 13.8417C12.1823 13.8795 12.1506 13.9121 12.1133 13.9379C12.076 13.9636 12.0339 13.9819 11.9894 13.9917C11.9449 14.0015 11.8988 14.0026 11.8539 13.995C11.8089 13.9873 11.7659 13.9711 11.7274 13.9472L7.50002 11.1819L3.26048 13.9472C3.21984 13.9723 3.17431 13.989 3.12678 13.996C3.07924 14.003 3.03074 14.0003 2.98433 13.988C2.94017 13.9766 2.89875 13.9567 2.86244 13.9295C2.82613 13.9023 2.79565 13.8684 2.77274 13.8297C2.74983 13.791 2.73495 13.7482 2.72893 13.7038C2.72292 13.6595 2.7259 13.6144 2.7377 13.5711L4.12715 8.77908L0.1325 5.69387C0.0766585 5.6508 0.0356446 5.59198 0.0149915 5.52535C-0.00566157 5.45872 -0.0049598 5.38749 0.0170021 5.32127C0.0389639 5.25505 0.081129 5.19702 0.137808 5.15501C0.194488 5.113 0.262954 5.08904 0.333969 5.08635L5.41585 4.88725L7.17523 0.222851C7.19262 0.176896 7.21994 0.135163 7.25531 0.100506C7.29068 0.0658495 7.33327 0.0390869 7.38018 0.0220488C7.46566 -0.00966269 7.56046 -0.00708106 7.64402 0.0292339C7.72757 0.0655489 7.79315 0.13267 7.82653 0.216044L9.58418 4.88725L14.6661 5.08635C14.7369 5.0892 14.8052 5.11323 14.8617 5.15521Z" fill="#9B192F"/>
</svg>
