<svg width="13" height="13" viewBox="0 0 13 13" fill="none" xmlns="http://www.w3.org/2000/svg">
<mask id="path-1-inside-1_736:3473" fill="white">
<path fill-rule="evenodd" clip-rule="evenodd" d="M12.4993 2.25C12.4993 3.49264 11.4919 4.5 10.2493 4.5C9.63038 4.5 9.06985 4.25013 8.66307 3.84577L4.34111 5.92031C4.44301 6.17704 4.49902 6.45698 4.49902 6.75C4.49902 6.80751 4.49687 6.86451 4.49263 6.92094L8.43561 9.41816C8.84519 8.86135 9.50503 8.50001 10.2493 8.50001C11.4919 8.50001 12.4993 9.50737 12.4993 10.75C12.4993 11.9926 11.4919 13 10.2493 13C9.00663 13 7.99927 11.9926 7.99927 10.75C7.99927 10.6128 8.01154 10.4785 8.03505 10.3482L4.17955 7.90634C3.78625 8.56154 3.06884 9 2.24902 9C1.00638 9 -0.000976562 7.99264 -0.000976562 6.75C-0.000976562 5.50736 1.00638 4.5 2.24902 4.5C2.83312 4.5 3.36523 4.72257 3.76518 5.08752L8.1254 2.99461C8.0437 2.76155 7.99927 2.51096 7.99927 2.25C7.99927 1.00736 9.00663 0 10.2493 0C11.4919 0 12.4993 1.00736 12.4993 2.25Z"/>
</mask>
<path fill-rule="evenodd" clip-rule="evenodd" d="M12.4993 2.25C12.4993 3.49264 11.4919 4.5 10.2493 4.5C9.63038 4.5 9.06985 4.25013 8.66307 3.84577L4.34111 5.92031C4.44301 6.17704 4.49902 6.45698 4.49902 6.75C4.49902 6.80751 4.49687 6.86451 4.49263 6.92094L8.43561 9.41816C8.84519 8.86135 9.50503 8.50001 10.2493 8.50001C11.4919 8.50001 12.4993 9.50737 12.4993 10.75C12.4993 11.9926 11.4919 13 10.2493 13C9.00663 13 7.99927 11.9926 7.99927 10.75C7.99927 10.6128 8.01154 10.4785 8.03505 10.3482L4.17955 7.90634C3.78625 8.56154 3.06884 9 2.24902 9C1.00638 9 -0.000976562 7.99264 -0.000976562 6.75C-0.000976562 5.50736 1.00638 4.5 2.24902 4.5C2.83312 4.5 3.36523 4.72257 3.76518 5.08752L8.1254 2.99461C8.0437 2.76155 7.99927 2.51096 7.99927 2.25C7.99927 1.00736 9.00663 0 10.2493 0C11.4919 0 12.4993 1.00736 12.4993 2.25Z" fill="white"/>
<path d="M8.66307 3.84577L9.36806 3.13655L8.86711 2.63859L8.23034 2.94424L8.66307 3.84577ZM4.34111 5.92031L3.90838 5.01878L3.06757 5.42237L3.41165 6.28923L4.34111 5.92031ZM4.49263 6.92094L3.49544 6.84603L3.45047 7.44459L3.95758 7.76575L4.49263 6.92094ZM8.43561 9.41816L7.90056 10.263L8.6885 10.762L9.24115 10.0107L8.43561 9.41816ZM8.03505 10.3482L9.01918 10.5256L9.13858 9.86337L8.5701 9.50334L8.03505 10.3482ZM4.17955 7.90634L4.7146 7.06152L3.8493 6.51349L3.32215 7.39167L4.17955 7.90634ZM3.76518 5.08752L3.09113 5.8262L3.58958 6.28104L4.19791 5.98904L3.76518 5.08752ZM8.1254 2.99461L8.55813 3.89614L9.3653 3.5087L9.06909 2.66378L8.1254 2.99461ZM10.2493 5.5C12.0442 5.5 13.4993 4.04493 13.4993 2.25H11.4993C11.4993 2.94036 10.9396 3.5 10.2493 3.5V5.5ZM7.95808 4.55498C8.54458 5.13799 9.35562 5.5 10.2493 5.5V3.5C9.90515 3.5 9.59513 3.36226 9.36806 3.13655L7.95808 4.55498ZM4.77384 6.82183L9.0958 4.74729L8.23034 2.94424L3.90838 5.01878L4.77384 6.82183ZM5.49902 6.75C5.49902 6.32858 5.4183 5.92359 5.27057 5.55138L3.41165 6.28923C3.46772 6.43049 3.49902 6.58537 3.49902 6.75H5.49902ZM5.48982 6.99585C5.49593 6.91452 5.49902 6.83253 5.49902 6.75H3.49902C3.49902 6.78249 3.49781 6.81451 3.49544 6.84603L5.48982 6.99585ZM8.97066 8.57334L5.02768 6.07612L3.95758 7.76575L7.90056 10.263L8.97066 8.57334ZM9.24115 10.0107C9.4704 9.69904 9.83651 9.50001 10.2493 9.50001V7.50001C9.17355 7.50001 8.21998 8.02365 7.63007 8.82562L9.24115 10.0107ZM10.2493 9.50001C10.9396 9.50001 11.4993 10.0597 11.4993 10.75H13.4993C13.4993 8.95508 12.0442 7.50001 10.2493 7.50001V9.50001ZM11.4993 10.75C11.4993 11.4404 10.9396 12 10.2493 12V14C12.0442 14 13.4993 12.5449 13.4993 10.75H11.4993ZM10.2493 12C9.55891 12 8.99927 11.4404 8.99927 10.75H6.99927C6.99927 12.5449 8.45434 14 10.2493 14V12ZM8.99927 10.75C8.99927 10.6726 9.00618 10.5977 9.01918 10.5256L7.05092 10.1707C7.0169 10.3594 6.99927 10.5531 6.99927 10.75H8.99927ZM3.64449 8.75115L7.5 11.193L8.5701 9.50334L4.7146 7.06152L3.64449 8.75115ZM2.24902 10C3.43439 10 4.47041 9.3648 5.03694 8.421L3.32215 7.39167C3.10209 7.75829 2.70329 8 2.24902 8V10ZM-1.00098 6.75C-1.00098 8.54492 0.454098 10 2.24902 10V8C1.55867 8 0.999023 7.44036 0.999023 6.75H-1.00098ZM2.24902 3.5C0.454098 3.5 -1.00098 4.95507 -1.00098 6.75H0.999023C0.999023 6.05964 1.55867 5.5 2.24902 5.5V3.5ZM4.43923 4.34883C3.86227 3.82236 3.09214 3.5 2.24902 3.5V5.5C2.5741 5.5 2.86819 5.62277 3.09113 5.8262L4.43923 4.34883ZM7.69267 2.09309L3.33245 4.186L4.19791 5.98904L8.55813 3.89614L7.69267 2.09309ZM6.99927 2.25C6.99927 2.62516 7.06325 2.98753 7.18171 3.32545L9.06909 2.66378C9.02415 2.53558 8.99927 2.39676 8.99927 2.25H6.99927ZM10.2493 -1C8.45434 -1 6.99927 0.455074 6.99927 2.25H8.99927C8.99927 1.55964 9.55891 1 10.2493 1V-1ZM13.4993 2.25C13.4993 0.455074 12.0442 -1 10.2493 -1V1C10.9396 1 11.4993 1.55964 11.4993 2.25H13.4993Z" fill="#484848" mask="url(#path-1-inside-1_736:3473)"/>
</svg>
