<svg width="24" height="24" viewBox="0 0 24 24" fill="none" xmlns="http://www.w3.org/2000/svg">
<circle cx="12" cy="12" r="12" fill="#B8B8B8"/>
<path d="M17.1567 16.4777L15.7527 15.0977C16.6407 14.2577 17.1687 13.0457 17.1687 11.7617C17.1687 9.1697 15.0207 7.04571 12.4287 7.04571C9.83666 7.04571 7.68866 9.1697 7.68866 11.7617C7.68866 14.4497 9.81266 16.4777 12.4287 16.4777C13.2927 16.4777 14.2647 16.1897 15.0087 15.6737L15.7887 16.4777H17.1567ZM13.5567 12.8777H12.1527L14.2287 14.9057C13.6767 15.2537 12.9807 15.4217 12.4287 15.4217C10.4727 15.4217 8.81666 13.8257 8.81666 11.7617C8.81666 9.76971 10.3047 8.10171 12.4287 8.10171C14.5527 8.10171 16.0407 9.76971 16.0407 11.7617C16.0407 12.6257 15.6807 13.6697 14.9847 14.2937L13.5567 12.8777Z" fill="white"/>
</svg>
