<?xml version="1.0" encoding="utf-8"?>
<!-- Generator: Adobe Illustrator 16.0.0, SVG Export Plug-In . SVG Version: 6.00 Build 0)  -->
<!DOCTYPE svg PUBLIC "-//W3C//DTD SVG 1.1//EN" "http://www.w3.org/Graphics/SVG/1.1/DTD/svg11.dtd">
<svg version="1.1" id="레이어_1" xmlns="http://www.w3.org/2000/svg" xmlns:xlink="http://www.w3.org/1999/xlink" x="0px"
	 y="0px" width="18px" height="19px" viewBox="-0.5 -0.5 18 19" enable-background="new -0.5 -0.5 18 19" xml:space="preserve">
<g id="icon_id" transform="translate(-1697 -331)">
	<g id="Vector_Smart_Object" transform="translate(1696.047 327.859)">
		<g id="그룹_330">
			<g id="그룹_329">
				<path id="패스_165" d="M0.972,21.641c-0.222-0.002-0.399-0.184-0.398-0.406c-0.136-2.146,0.694-4.241,2.264-5.713
					c1.891-1.446,4.242-2.155,6.616-1.997c2.375-0.158,4.726,0.551,6.615,1.997c1.57,1.472,2.4,3.566,2.264,5.713
					c0.002,0.223-0.177,0.404-0.397,0.406H0.972z M9.453,14.335c-5.047,0-7.757,2.068-8.056,6.145l-0.026,0.352h16.163l-0.025-0.352
					C17.211,16.404,14.501,14.335,9.453,14.335z"/>
			</g>
		</g>
		<g id="그룹_332">
			<g id="그룹_331">
				<path id="패스_166" d="M9.453,12.419C6.86,12.274,4.869,10.064,4.995,7.47C4.902,5.007,6.824,2.936,9.286,2.844
					c2.462-0.092,4.532,1.829,4.624,4.291c0.005,0.112,0.005,0.223,0,0.335C14.037,10.064,12.047,12.274,9.453,12.419z M9.453,3.644
					c-2-0.025-3.643,1.575-3.668,3.575c-0.001,0.084,0,0.167,0.006,0.251c-0.122,2.151,1.513,3.997,3.662,4.14
					c2.149-0.143,3.783-1.989,3.662-4.14c0.088-2.021-1.479-3.731-3.499-3.819C9.562,3.648,9.508,3.647,9.453,3.647V3.644z"/>
			</g>
		</g>
	</g>
</g>
</svg>
