<svg width="53" height="17" viewBox="0 0 53 17" fill="none" xmlns="http://www.w3.org/2000/svg">
<g clip-path="url(#clip0_7_531)">
<path fill-rule="evenodd" clip-rule="evenodd" d="M9.35582 0C4.19073 0 0 3.25321 0 7.26923C0 9.84936 1.7369 12.1154 4.34063 13.4071L3.45751 16.6442C3.42493 16.7436 3.451 16.8494 3.52595 16.9199C3.57483 16.9712 3.64326 16.9968 3.71821 16.9968C3.77361 16.9968 3.82901 16.9744 3.88115 16.9359L7.67105 14.4167C8.22178 14.4936 8.78228 14.5385 9.35582 14.5385C14.5242 14.5385 18.7149 11.2853 18.7149 7.26923C18.7149 3.25321 14.5242 0 9.35582 0Z" fill="black"/>
<path d="M26.5163 11.5V15.0865H23.9191V1.85899H25.7505L26.0698 2.69873C26.6206 2.15706 27.4581 1.58014 28.8104 1.58014C31.3555 1.58014 32.5645 3.45193 32.5449 6.47757C32.5449 9.64424 30.6777 11.6731 28.0088 11.6731C27.4939 11.6731 27.1028 11.6378 26.5163 11.4968V11.5ZM26.5163 3.9936V9.71475C26.6597 9.73078 27.0149 9.76604 27.3538 9.76604C29.2047 9.76604 29.9151 8.4904 29.9151 6.47757C29.9151 4.71155 29.4361 3.64424 27.9599 3.64424C27.4809 3.64424 26.9464 3.78527 26.5195 3.9936H26.5163Z" fill="black"/>
<path d="M38.2021 5.58655H39.6783V5.27245C39.6783 4.22437 39.0722 3.73398 38.0229 3.73398C37.2213 3.73398 36.1915 3.96155 35.354 4.36539L34.6436 2.65065C35.5691 2.01924 36.9899 1.58334 38.2543 1.58334C40.7439 1.58334 42.0963 2.87822 42.0963 5.34616V11.4167H40.2649L39.9977 10.6122C38.9484 11.3654 37.9871 11.6795 37.117 11.6795C35.2139 11.6795 34.145 10.5609 34.145 8.66988C34.145 6.65706 35.5691 5.58975 38.1989 5.58975L38.2021 5.58655ZM39.6783 8.96155V7.21155H38.4856C37.1528 7.21155 36.475 7.6827 36.475 8.62821C36.475 9.34616 36.8498 9.69552 37.6123 9.69552C38.3227 9.69552 39.2319 9.34616 39.6751 8.96155H39.6783Z" fill="black"/>
<path d="M49.9596 10.4327C49.0537 12.8109 47.9685 14.5449 46.3848 15.5064L44.7847 14.0545C45.7102 13.266 46.3685 12.4968 46.9355 11.4647L43.4845 2.21154L46.0622 1.52885L48.2683 9.03526L50.4549 1.4968L53 2.19551L49.9596 10.4359V10.4327Z" fill="black"/>
</g>
<defs>
<clipPath id="clip0_7_531">
<rect width="53" height="17" fill="white"/>
</clipPath>
</defs>
</svg>
