<?xml version="1.0" encoding="utf-8"?>
<!-- Generator: Adobe Illustrator 16.0.0, SVG Export Plug-In . SVG Version: 6.00 Build 0)  -->
<!DOCTYPE svg PUBLIC "-//W3C//DTD SVG 1.1//EN" "http://www.w3.org/Graphics/SVG/1.1/DTD/svg11.dtd">
<svg version="1.1" id="레이어_1" xmlns="http://www.w3.org/2000/svg" xmlns:xlink="http://www.w3.org/1999/xlink" x="0px"
	 y="0px" width="21px" height="17.996px" viewBox="-0.008 0 21 17.996" enable-background="new -0.008 0 21 17.996"
	 xml:space="preserve">
<g id="icon_검색" transform="translate(-1646 -331)">
	<g id="Ellipse_3">
		<path fill="none" d="M1666.152,348.43l-4.863-3.773l-0.314-0.245l-0.246,0.314c-1.536,1.966-3.828,3.095-6.288,3.095
			c-4.434,0-8.04-3.684-8.04-8.211c0-4.526,3.606-8.209,8.04-8.209c4.433,0,8.039,3.683,8.039,8.209
			c0,1.407-0.354,2.796-1.024,4.016l-0.162,0.294l0.262,0.21l4.88,3.917L1666.152,348.43z"/>
		<path d="M1654.44,347.42c2.336,0,4.514-1.072,5.974-2.941l0.387-0.495l0.304-0.552c0.638-1.16,0.976-2.482,0.976-3.822
			c0-4.306-3.427-7.809-7.64-7.809s-7.64,3.503-7.64,7.809C1646.801,343.916,1650.227,347.42,1654.44,347.42 M1666.23,348.996
			l-5.187-4.024c-1.546,1.979-3.93,3.248-6.604,3.248c-4.662,0-8.44-3.854-8.44-8.61c0-4.754,3.778-8.609,8.44-8.609
			c4.661,0,8.439,3.855,8.439,8.609c0,1.528-0.391,2.964-1.074,4.208l5.179,4.157L1666.23,348.996z"/>
	</g>
</g>
</svg>
