<svg width="21" height="22" viewBox="0 0 21 22" fill="none" xmlns="http://www.w3.org/2000/svg">
<path d="M5.87829 0.999825C5.62105 0.999081 5.3662 1.0492 5.12841 1.14729C4.89061 1.24539 4.67455 1.38953 4.49265 1.57143C4.31076 1.75332 4.16662 1.96938 4.06852 2.20718C3.97042 2.44498 3.92031 2.69983 3.92105 2.95706C3.92292 3.50662 4.1426 4.03303 4.53195 4.42088H0.738724C0.673248 4.42698 0.612431 4.45738 0.568248 4.50609C0.524065 4.55479 0.499718 4.61828 0.500002 4.68404V9.42088C0.500002 9.49067 0.527728 9.55761 0.577079 9.60696C0.626431 9.65631 0.693366 9.68403 0.76316 9.68403H2.07895V20.7367C2.07895 20.8065 2.10667 20.8734 2.15603 20.9227C2.20538 20.9721 2.27231 20.9998 2.34211 20.9998H18.6579C18.7277 20.9998 18.7946 20.9721 18.844 20.9227C18.8933 20.8734 18.921 20.8065 18.921 20.7367V9.68403H20.2368C20.3066 9.68403 20.3736 9.65631 20.4229 9.60696C20.4723 9.55761 20.5 9.49067 20.5 9.42088V4.68404C20.5 4.61424 20.4723 4.54731 20.4229 4.49795C20.3736 4.4486 20.3066 4.42088 20.2368 4.42088H16.4704C16.8589 4.03264 17.0777 3.50629 17.0789 2.95706C17.0797 2.69983 17.0296 2.44498 16.9315 2.20718C16.8334 1.96938 16.6892 1.75332 16.5073 1.57143C16.3254 1.38953 16.1094 1.24539 15.8716 1.14729C15.6338 1.0492 15.3789 0.999081 15.1217 0.999825C13.9088 0.999825 13.0578 1.55622 12.3585 2.22492C11.7096 2.84569 11.1631 3.55575 10.5 4.08347C9.83693 3.55575 9.29041 2.84569 8.64144 2.22492C7.94219 1.55622 7.09069 0.999825 5.87829 0.999825ZM5.87829 1.52614C6.93468 1.52614 7.617 1.97727 8.27161 2.60321C8.85103 3.15772 9.38815 3.85368 10.0724 4.42088H5.56579C5.55237 4.41711 5.53871 4.41429 5.5249 4.41242C4.91729 4.24325 4.44737 3.61355 4.44737 2.95565C4.4447 2.76707 4.47991 2.57987 4.55089 2.40514C4.62188 2.23041 4.7272 2.0717 4.86063 1.9384C4.99406 1.80511 5.15287 1.69994 5.32767 1.62913C5.50247 1.55831 5.68971 1.52329 5.87829 1.52614ZM15.1217 1.52614C15.3104 1.52329 15.4977 1.55835 15.6726 1.62925C15.8475 1.70015 16.0064 1.80545 16.1399 1.93889C16.2733 2.07234 16.3786 2.23122 16.4495 2.40612C16.5204 2.58101 16.5555 2.76836 16.5526 2.95706C16.5526 3.61214 16.0827 4.24325 15.4751 4.41383C15.4668 4.41615 15.4586 4.41898 15.4506 4.42229H10.9276C11.6118 3.85509 12.1494 3.15913 12.7284 2.60462C13.3834 1.97727 14.0653 1.52614 15.1217 1.52614ZM1.02397 4.94719H19.9713V9.15772H1.02397V4.94719ZM2.60526 9.68403H18.3947V20.4735H2.60526V9.68403Z" fill="black" stroke="black" stroke-width="0.3"/>
</svg>
