<svg width="14" height="14" viewBox="0 0 14 14" fill="none" xmlns="http://www.w3.org/2000/svg">
<path fill-rule="evenodd" clip-rule="evenodd" d="M0.143431 12.9907C-0.0478105 13.1899 -0.0478104 13.5129 0.143431 13.7121C0.334673 13.9113 0.644737 13.9113 0.835979 13.7121L6.93465 7.3596L13.1642 13.8484C13.3554 14.0476 13.6655 14.0476 13.8567 13.8484C14.048 13.6492 14.048 13.3263 13.8567 13.1271L7.6272 6.63823L13.1642 0.870773C13.3554 0.671572 13.3554 0.348602 13.1642 0.149401C12.973 -0.0498004 12.6629 -0.0498002 12.4717 0.149401L6.93465 5.91686L1.52853 0.285732C1.33729 0.0865303 1.02722 0.0865303 0.835979 0.285732C0.644737 0.484933 0.644737 0.807902 0.835979 1.0071L6.2421 6.63823L0.143431 12.9907Z" fill="black"/>
</svg>
