<svg width="37" height="22" viewBox="0 0 37 22" fill="none" xmlns="http://www.w3.org/2000/svg">
<circle cx="33.5" cy="4.5" r="1" stroke="#484848"/>
<path d="M2.69238 11C-0.459336 11.9916 -1.09051 18.6827 18 19" stroke="#484848"/>
<path d="M34.4072 11C37.3735 11.9916 37.9675 18.6827 20 19" stroke="#484848"/>
<path d="M16 16.5L18 19L16 21" stroke="#484848" stroke-linecap="round" stroke-linejoin="round"/>
<path d="M9.79152 8.49688C10.8955 8.46088 11.7115 9.03688 11.7115 10.1889C11.7115 11.1849 10.9555 12.0009 9.94752 12.0009C9.03552 12.0009 8.25552 11.3529 8.20752 10.4289H7.22352C7.24752 11.9409 8.44752 12.9369 9.91152 12.9369C11.4595 12.9369 12.7195 11.8329 12.7195 10.2489C12.7195 9.32488 12.2995 8.42488 11.4235 8.02888C12.1555 7.65688 12.5875 6.85288 12.5875 6.04888C12.5875 4.56088 11.4715 3.57688 10.0195 3.57688C8.53152 3.57688 7.65552 4.52488 7.51152 5.96488H8.50752C8.59152 5.11288 9.09552 4.51288 9.99552 4.51288C10.9435 4.51288 11.5795 5.13688 11.5795 6.09688C11.5795 7.23688 10.7515 7.52488 9.79152 7.56088V8.49688ZM19.49 3.57688L16.49 7.66888C16.034 8.30488 15.662 9.01288 15.662 9.84088C15.662 11.5449 17.066 12.9369 18.782 12.9369C20.486 12.9369 21.902 11.5569 21.902 9.82888C21.902 8.19688 20.618 6.84088 18.974 6.84088C18.842 6.84088 18.698 6.85288 18.566 6.87688C18.434 6.90088 18.302 6.92488 18.182 6.97288L18.158 6.94888L20.246 4.14088L19.49 3.57688ZM18.782 12.0009C17.606 12.0009 16.67 11.0409 16.67 9.86488C16.67 8.68888 17.606 7.77688 18.782 7.77688C19.946 7.77688 20.894 8.68888 20.894 9.86488C20.894 11.0409 19.958 12.0009 18.782 12.0009ZM27.4246 3.57688C25.1326 3.57688 24.1846 6.40888 24.1846 8.26888C24.1846 10.5009 25.3606 12.9369 27.4246 12.9369C29.4886 12.9369 30.6646 10.5009 30.6646 8.26888C30.6646 6.40888 29.7166 3.57688 27.4246 3.57688ZM27.4246 4.51288C29.1286 4.51288 29.6806 7.03288 29.6566 8.31688C29.6326 9.58888 29.0926 12.0009 27.4246 12.0009C25.7566 12.0009 25.2166 9.58888 25.1926 8.31688C25.1686 7.03288 25.7206 4.51288 27.4246 4.51288Z" fill="#484848"/>
</svg>
