<svg width="14" height="14" viewBox="0 0 14 14" fill="none" xmlns="http://www.w3.org/2000/svg">
<path d="M4.22697 0.999822C4.07263 0.999375 3.91972 1.02945 3.77704 1.0883C3.63436 1.14716 3.50473 1.23365 3.39559 1.34278C3.28645 1.45192 3.19997 1.58156 3.14111 1.72423C3.08225 1.86691 3.05218 2.01982 3.05263 2.17416C3.05375 2.5039 3.18556 2.81974 3.41917 3.05245H1.14323C1.10395 3.05612 1.06746 3.07436 1.04095 3.10358C1.01444 3.1328 0.999831 3.17089 1 3.21035V6.05245C1 6.09433 1.01664 6.13449 1.04625 6.1641C1.07586 6.19371 1.11602 6.21035 1.1579 6.21035H1.94737V12.8419C1.94737 12.8838 1.964 12.924 1.99362 12.9536C2.02323 12.9832 2.06339 12.9998 2.10526 12.9998H11.8947C11.9366 12.9998 11.9768 12.9832 12.0064 12.9536C12.036 12.924 12.0526 12.8838 12.0526 12.8419V6.21035H12.8421C12.884 6.21035 12.9241 6.19371 12.9537 6.1641C12.9834 6.13449 13 6.09433 13 6.05245V3.21035C13 3.16847 12.9834 3.12831 12.9537 3.0987C12.9241 3.06909 12.884 3.05245 12.8421 3.05245H10.5822C10.8153 2.81951 10.9466 2.5037 10.9474 2.17416C10.9478 2.01982 10.9177 1.86691 10.8589 1.72423C10.8 1.58156 10.7135 1.45192 10.6044 1.34278C10.4953 1.23365 10.3656 1.14716 10.2229 1.0883C10.0803 1.02945 9.92736 0.999375 9.77302 0.999822C9.04529 0.999822 8.53467 1.33366 8.11513 1.73488C7.72575 2.10734 7.39783 2.53337 7 2.85001C6.60216 2.53337 6.27424 2.10734 5.88486 1.73488C5.46532 1.33366 4.95441 0.999822 4.22697 0.999822ZM4.22697 1.31561C4.86081 1.31561 5.2702 1.58629 5.66297 1.96185C6.01062 2.29456 6.33289 2.71213 6.74342 3.05245H4.03947C4.03142 3.05019 4.02323 3.0485 4.01494 3.04738C3.65037 2.94587 3.36842 2.56805 3.36842 2.17332C3.36682 2.06017 3.38795 1.94785 3.43054 1.84301C3.47313 1.73817 3.53632 1.64294 3.61638 1.56297C3.69643 1.48299 3.79172 1.41989 3.8966 1.3774C4.00148 1.33491 4.11382 1.3139 4.22697 1.31561ZM9.77302 1.31561C9.88624 1.3139 9.99865 1.33494 10.1036 1.37748C10.2085 1.42002 10.3039 1.4832 10.3839 1.56326C10.464 1.64333 10.5272 1.73866 10.5697 1.8436C10.6122 1.94853 10.6333 2.06094 10.6316 2.17416C10.6316 2.56721 10.3496 2.94587 9.98505 3.04822C9.98006 3.04962 9.97517 3.05131 9.97039 3.0533H7.25657C7.6671 2.71298 7.98966 2.2954 8.33702 1.9627C8.73007 1.58629 9.13918 1.31561 9.77302 1.31561ZM1.31438 3.36824H12.6828V5.89456H1.31438V3.36824ZM2.26316 6.21035H11.7368V12.684H2.26316V6.21035Z" fill="#9B192F" stroke="#9B192F" stroke-width="0.3"/>
</svg>
