<svg width="16" height="16" viewBox="0 0 16 16" fill="none" xmlns="http://www.w3.org/2000/svg">
<path fill-rule="evenodd" clip-rule="evenodd" d="M0.66029 14.4104C0.465187 14.6055 0.458925 14.9284 0.646303 15.1315C0.833682 15.3347 1.14374 15.3412 1.33885 15.1461L7.8887 8.59625L14.1603 14.8678C14.3554 15.0629 14.6655 15.0564 14.8528 14.8533C15.0402 14.6501 15.0339 14.3273 14.8388 14.1322L8.5958 7.88914L14.8388 1.6461C15.0339 1.451 15.0402 1.12816 14.8528 0.925009C14.6655 0.721864 14.3554 0.715343 14.1603 0.910447L7.88869 7.18203L1.83884 1.13219C1.64373 0.937092 1.33367 0.943613 1.14629 1.14676C0.958913 1.34991 0.965176 1.67275 1.16028 1.86785L7.18159 7.88914L0.66029 14.4104Z" fill="white"/>
</svg>
