<svg width="18" height="20" viewBox="0 0 18 20" fill="none" xmlns="http://www.w3.org/2000/svg">
<path d="M4.22557 6.73649H1.19098C1.1386 6.74127 1.08994 6.7651 1.0546 6.80327C1.01925 6.84144 0.999775 6.8912 1 6.94273V10.6551C1 10.7098 1.02218 10.7623 1.06166 10.801C1.10114 10.8396 1.15469 10.8614 1.21053 10.8614H2.26316V19.5236C2.26316 19.5783 2.28534 19.6308 2.32482 19.6695C2.3643 19.7081 2.41785 19.7299 2.47369 19.7299H15.5263C15.5822 19.7299 15.6357 19.7081 15.6752 19.6695C15.7147 19.6308 15.7368 19.5783 15.7368 19.5236V10.8614H16.7895C16.8453 10.8614 16.8989 10.8396 16.9383 10.801C16.9778 10.7623 17 10.7098 17 10.6551V6.94273C17 6.88803 16.9778 6.83557 16.9383 6.7969C16.8989 6.75822 16.8453 6.73649 16.7895 6.73649H13.7763M9.34211 6.73649L5.05263 6.73649C5.0419 6.73354 3 6.72986 5.01993 6.72986M12.9801 6.73096C12.9734 6.73279 14.5 6.73759 14.4936 6.74019L9.34211 6.73759M1.41918 7.14898V10.4489H16.5771V7.14898H1.41918ZM2.68421 10.8614H15.3158V19.3174H2.68421V10.8614Z" stroke="black" stroke-width="0.5"/>
<path d="M8.94352 8.37787L8.94339 8.37776C8.57823 8.05821 8.22503 7.75695 7.90884 7.48726C7.8726 7.45635 7.83684 7.42585 7.80161 7.39579L7.77843 7.37601L7.77652 7.37474C6.76814 6.51546 5.94477 5.80983 5.37761 5.12429L5.37727 5.12388C4.75575 4.37428 4.5 3.70785 4.5 3.00661C4.5 2.29757 4.74243 1.6639 5.16105 1.21007L5.16127 1.20983C5.58296 0.752074 6.15957 0.5 6.79412 0.5C7.25804 0.5 7.67967 0.644498 8.05923 0.938306L8.05934 0.938396C8.25327 1.08842 8.4334 1.2755 8.59521 1.49961L9.00059 2.06107L9.40597 1.49961C9.56772 1.27558 9.74786 1.08842 9.9414 0.938261C10.3212 0.644883 10.7435 0.5 11.2071 0.5C11.8414 0.5 12.4174 0.751929 12.8392 1.20967C13.2576 1.66435 13.5 2.29771 13.5 3.00661C13.5 3.70931 13.2452 4.37448 12.6235 5.12371L12.6231 5.12414C12.0516 5.81437 11.2199 6.52561 10.1999 7.39431L10.1996 7.39461C9.85531 7.68837 9.46487 8.02331 9.05777 8.37623L9.05773 8.37618L9.05176 8.38153C9.04007 8.392 9.02165 8.4 9.00059 8.4C8.98103 8.4 8.96063 8.39286 8.94352 8.37787Z" fill="#9B192F" stroke="#9B192F"/>
</svg>
