<svg width="16" height="14" viewBox="0 0 16 14" fill="none" xmlns="http://www.w3.org/2000/svg">
<path d="M15.1638 5.32119C15.1419 5.25511 15.0998 5.19719 15.0433 5.15521C14.9868 5.11323 14.9186 5.0892 14.8477 5.08635L9.76582 4.88725L8.00817 0.216044C7.97479 0.13267 7.90921 0.0655489 7.82566 0.0292339C7.7421 -0.00708106 7.6473 -0.00966269 7.56182 0.0220488C7.51491 0.0390869 7.47232 0.0658495 7.43695 0.100506C7.40158 0.135163 7.37426 0.176896 7.35687 0.222851L5.59749 4.88725L0.515609 5.08635C0.444594 5.08904 0.376128 5.113 0.319449 5.15501C0.26277 5.19702 0.220605 5.25505 0.198643 5.32127C0.176681 5.38749 0.175979 5.45872 0.196632 5.52535C0.217285 5.59198 0.258299 5.6508 0.31414 5.69387L4.30879 8.77908L2.91934 13.5711C2.90754 13.6144 2.90456 13.6595 2.91057 13.7038C2.91659 13.7482 2.93147 13.791 2.95438 13.8297C2.97729 13.8684 3.00777 13.9023 3.04408 13.9295C3.08039 13.9567 3.12181 13.9766 3.16597 13.988C3.21238 14.0003 3.26089 14.003 3.30842 13.996C3.35595 13.989 3.40148 13.9723 3.44212 13.9472L7.68166 11.1819L11.909 13.9472C11.9476 13.9711 11.9906 13.9873 12.0355 13.995C12.0805 14.0026 12.1265 14.0015 12.171 13.9917C12.2155 13.9819 12.2576 13.9636 12.2949 13.9379C12.3322 13.9121 12.364 13.8795 12.3884 13.8417C12.4141 13.8019 12.431 13.7573 12.4382 13.7107C12.4454 13.6641 12.4426 13.6166 12.4301 13.5711L11.0597 8.77738L15.0544 5.69216C15.1088 5.64847 15.1484 5.5896 15.168 5.52335C15.1875 5.45711 15.1861 5.38661 15.1638 5.32119ZM10.4466 8.38428C10.3927 8.42584 10.3525 8.48212 10.3312 8.54602C10.3099 8.60993 10.3084 8.67859 10.3268 8.74334L11.513 12.87L7.86576 10.4876C7.80868 10.4503 7.74159 10.4304 7.67297 10.4304C7.60435 10.4304 7.53727 10.4503 7.48019 10.4876L3.84159 12.87L5.02782 8.74334C5.04628 8.67859 5.04474 8.60993 5.02342 8.54602C5.00209 8.48212 4.96192 8.42584 4.90798 8.38428L1.48301 5.7296L5.85454 5.55943C5.92333 5.55681 5.98977 5.53422 6.04543 5.49453C6.1011 5.45484 6.14347 5.39984 6.16716 5.33651L7.68166 1.31535L9.19788 5.33651C9.22158 5.39984 9.26395 5.45484 9.31961 5.49453C9.37527 5.53422 9.44172 5.55681 9.51051 5.55943L13.882 5.7296L10.4466 8.38428Z" fill="#9B192F"/>
</svg>
