<svg width="22" height="19" viewBox="0 0 22 19" fill="none" xmlns="http://www.w3.org/2000/svg">
<path d="M10.8584 19C10.5493 19 10.2517 18.8885 10.0192 18.6884C9.14171 17.9334 8.29615 17.2265 7.5502 16.6008L7.54634 16.5982C5.35831 14.7653 3.46919 13.1818 2.15484 11.6199C0.685931 9.87813 0 8.22247 0 6.41861C0 4.6629 0.611831 3.04399 1.72309 1.85958C2.84712 0.659961 4.39012 0 6.06723 0C7.32027 0 8.46856 0.390132 9.47891 1.15905C9.98856 1.54668 10.451 2.02173 10.8584 2.57657C11.2659 2.02173 11.7283 1.54668 12.2366 1.15905C13.247 0.391398 14.3966 0 15.6496 0C17.3267 0 18.8684 0.659961 19.9925 1.85958C21.1025 3.04525 21.7143 4.6629 21.7143 6.41861C21.7143 8.225 21.0309 9.87813 19.5607 11.6199C18.2464 13.1806 16.3572 14.764 14.1667 16.5982C13.4207 17.224 12.5751 17.9372 11.6938 18.6884C11.4664 18.8885 11.1675 19 10.8584 19ZM6.06851 1.24901C4.75033 1.24901 3.54072 1.76583 2.66065 2.70576C1.76653 3.65836 1.27474 4.97704 1.27474 6.41734C1.27474 7.93617 1.84825 9.29416 3.13578 10.8231C4.37988 12.3002 6.22944 13.8519 8.37276 15.6482L8.37662 15.6507C9.12513 16.279 9.97453 16.9922 10.8584 17.751C11.7449 16.9884 12.5955 16.2765 13.3492 15.6482C15.4899 13.8519 17.3408 12.3002 18.5861 10.8231C19.8737 9.29543 20.4472 7.93871 20.4472 6.41734C20.4472 4.97704 19.9529 3.65963 19.06 2.70576C18.18 1.76583 16.9691 1.24901 15.6522 1.24901C14.6865 1.24901 13.8014 1.5505 13.0171 2.14588C12.321 2.67665 11.8343 3.34676 11.5481 3.81672C11.4025 4.05741 11.1458 4.2018 10.8597 4.2018C10.5749 4.2018 10.3168 4.05741 10.17 3.81672C9.88512 3.34676 9.39972 2.67665 8.7023 2.14588C7.91931 1.5505 7.03288 1.24901 6.06851 1.24901Z" fill="black"/>
</svg>
