<svg width="26" height="19" viewBox="0 0 26 19" fill="none" xmlns="http://www.w3.org/2000/svg">
<path d="M0.00836186 0.606182V5.40458C6.47334e-05 5.47509 0.00565076 5.54656 0.0247999 5.61489C0.043949 5.68323 0.076285 5.74708 0.119956 5.8028C0.163627 5.85851 0.217774 5.905 0.279297 5.93959C0.34082 5.97418 0.408509 5.9962 0.478488 6.00438C0.519933 6.01037 0.562013 6.01037 0.603458 6.00438C1.39261 6.00438 2.14943 6.32035 2.70744 6.88277C3.26545 7.44519 3.57894 8.208 3.57894 9.00338C3.57894 9.79877 3.26545 10.5616 2.70744 11.124C2.14943 11.6864 1.39261 12.0024 0.603458 12.0024C0.5335 11.994 0.462593 11.9997 0.394797 12.019C0.327001 12.0383 0.263649 12.0708 0.208369 12.1149C0.15309 12.1589 0.106969 12.2135 0.0726485 12.2755C0.0383279 12.3375 0.0164819 12.4057 0.00836186 12.4762C0.00242105 12.518 0.00242105 12.5604 0.00836186 12.6022V17.4006C6.47334e-05 17.4711 0.00565076 17.5426 0.0247999 17.6109C0.043949 17.6792 0.076285 17.7431 0.119956 17.7988C0.163627 17.8545 0.217774 17.901 0.279297 17.9356C0.34082 17.9702 0.408509 17.9922 0.478488 18.0004H24.4073C24.4773 18.0087 24.5482 18.0031 24.616 17.9838C24.6838 17.9645 24.7471 17.9319 24.8024 17.8879C24.8577 17.8439 24.9038 17.7893 24.9381 17.7273C24.9724 17.6653 24.9943 17.5971 25.0024 17.5265C25.0084 17.4848 25.0084 17.4424 25.0024 17.4006V12.6022C25.0107 12.5317 25.0051 12.4602 24.986 12.3919C24.9668 12.3235 24.9345 12.2597 24.8908 12.204C24.8471 12.1483 24.793 12.1018 24.7315 12.0672C24.67 12.0326 24.6023 12.0106 24.5323 12.0024C24.4908 11.9964 24.4488 11.9964 24.4073 12.0024C23.6182 12.0024 22.8613 11.6864 22.3033 11.124C21.7453 10.5616 21.4318 9.79877 21.4318 9.00338C21.4318 8.208 21.7453 7.44519 22.3033 6.88277C22.8613 6.32035 23.6182 6.00438 24.4073 6.00438C24.4773 6.01275 24.5482 6.00712 24.616 5.98782C24.6838 5.96852 24.7471 5.93592 24.8024 5.89191C24.8577 5.84789 24.9038 5.79332 24.9381 5.73131C24.9724 5.6693 24.9943 5.60107 25.0024 5.53054C25.0084 5.48877 25.0084 5.44636 25.0024 5.40458V0.606182C25.0107 0.535671 25.0051 0.464203 24.986 0.395871C24.9668 0.327539 24.9345 0.263687 24.8908 0.20797C24.8471 0.152254 24.793 0.105768 24.7315 0.0711765C24.67 0.0365846 24.6023 0.0145658 24.5323 0.00638161H0.603458C0.5335 -0.0019811 0.462593 0.00364894 0.394797 0.0229494C0.327001 0.0422499 0.263649 0.0748419 0.208369 0.118858C0.15309 0.162874 0.106969 0.217449 0.0726485 0.279458C0.0383279 0.341467 0.0164819 0.409692 0.00836186 0.480224C0.00242105 0.521996 0.00242105 0.564409 0.00836186 0.606182ZM23.8122 4.86476C22.8431 5.03166 21.9638 5.53866 21.3298 6.29606C20.6959 7.05346 20.3482 8.01246 20.3482 9.00338C20.3482 9.99431 20.6959 10.9533 21.3298 11.7107C21.9638 12.4681 22.8431 12.9751 23.8122 13.142V16.8008H7.14952V16.201C7.14952 16.0419 7.08682 15.8893 6.97522 15.7769C6.86362 15.6644 6.71225 15.6012 6.55442 15.6012C6.39659 15.6012 6.24523 15.6644 6.13363 15.7769C6.02202 15.8893 5.95933 16.0419 5.95933 16.201V16.8008H1.19855V13.142C2.16767 12.9751 3.04698 12.4681 3.68093 11.7107C4.31489 10.9533 4.66262 9.99431 4.66262 9.00338C4.66262 8.01246 4.31489 7.05346 3.68093 6.29606C3.04698 5.53866 2.16767 5.03166 1.19855 4.86476V1.20598H5.95933V1.80578C5.95933 1.96486 6.02202 2.11742 6.13363 2.2299C6.24523 2.34239 6.39659 2.40558 6.55442 2.40558C6.71225 2.40558 6.86362 2.34239 6.97522 2.2299C7.08682 2.11742 7.14952 1.96486 7.14952 1.80578V1.20598H23.8122V4.86476Z" fill="black"/>
<path d="M6.55268 10.6225C6.48272 10.6308 6.41181 10.6252 6.34402 10.6059C6.27622 10.5866 6.21287 10.554 6.15759 10.51C6.10231 10.466 6.05619 10.4114 6.02187 10.3494C5.98755 10.2874 5.9657 10.2192 5.95758 10.1486C5.95164 10.1068 5.95164 10.0644 5.95758 10.0227V7.98334C5.95758 7.82427 6.02028 7.67171 6.13188 7.55922C6.24348 7.44674 6.39485 7.38354 6.55268 7.38354C6.71051 7.38354 6.86187 7.44674 6.97347 7.55922C7.08508 7.67171 7.14777 7.82427 7.14777 7.98334V10.0227C7.15607 10.0932 7.15049 10.1646 7.13134 10.233C7.11219 10.3013 7.07985 10.3652 7.03618 10.4209C6.99251 10.4766 6.93836 10.5231 6.87684 10.5577C6.81532 10.5923 6.74763 10.6143 6.67765 10.6225C6.6362 10.6285 6.59412 10.6285 6.55268 10.6225Z" fill="black"/>
<path d="M6.55213 3.24493C6.70996 3.24493 6.86132 3.30813 6.97292 3.42061C7.08453 3.5331 7.14722 3.68566 7.14722 3.84473V5.94403C7.14722 6.10311 7.08453 6.25567 6.97292 6.36816C6.86132 6.48064 6.70996 6.54383 6.55213 6.54383C6.3943 6.54383 6.24293 6.48064 6.13133 6.36816C6.01973 6.25567 5.95703 6.10311 5.95703 5.94403V3.84473C5.95703 3.68566 6.01973 3.5331 6.13133 3.42061C6.24293 3.30813 6.3943 3.24493 6.55213 3.24493Z" fill="black"/>
<path d="M7.14722 12.062V14.1613C7.14722 14.3203 7.08453 14.4729 6.97292 14.5854C6.86132 14.6979 6.70996 14.7611 6.55213 14.7611C6.3943 14.7611 6.24293 14.6979 6.13133 14.5854C6.01973 14.4729 5.95703 14.3203 5.95703 14.1613V12.062C5.95703 11.9029 6.01973 11.7503 6.13133 11.6378C6.24293 11.5254 6.3943 11.4622 6.55213 11.4622C6.70996 11.4622 6.86132 11.5254 6.97292 11.6378C7.08453 11.7503 7.14722 11.9029 7.14722 12.062Z" fill="black"/>
<path d="M10.4795 5.52414L17.6207 11.5221C17.6988 11.5738 17.762 11.6455 17.8038 11.7297C17.8456 11.814 17.8646 11.9079 17.8587 12.002L17.7397 12.3619C17.6928 12.4249 17.634 12.478 17.5668 12.5181C17.4995 12.5582 17.4251 12.5846 17.3478 12.5957C17.2704 12.6069 17.1916 12.6026 17.1159 12.583C17.0402 12.5635 16.9691 12.5291 16.9065 12.4818L9.76538 6.48381C9.70286 6.43655 9.65019 6.37735 9.61038 6.30957C9.57056 6.24179 9.54438 6.16678 9.53332 6.0888C9.52227 6.01083 9.52657 5.93142 9.54596 5.85512C9.56536 5.77881 9.59947 5.70711 9.64636 5.64409C9.69325 5.58108 9.752 5.52799 9.81924 5.48786C9.88649 5.44773 9.96092 5.42134 10.0383 5.4102C10.1156 5.39906 10.1944 5.40339 10.2701 5.42294C10.3458 5.44249 10.417 5.47688 10.4795 5.52414Z" fill="black"/>
<path d="M13.0979 10.8024C13.0979 10.4465 12.9932 10.0986 12.797 9.8027C12.6009 9.50679 12.3221 9.27616 11.9958 9.13996C11.6696 9.00377 11.3107 8.96814 10.9643 9.03757C10.618 9.107 10.2999 9.27837 10.0502 9.53002C9.80057 9.78167 9.63053 10.1023 9.56165 10.4513C9.49276 10.8004 9.52812 11.1622 9.66324 11.491C9.79837 11.8198 10.0272 12.1008 10.3208 12.2985C10.6144 12.4963 10.9595 12.6018 11.3126 12.6018C11.5393 12.6098 11.7653 12.5727 11.9777 12.4926C12.1902 12.4125 12.3849 12.291 12.5507 12.1351C12.7165 11.9791 12.8501 11.7917 12.9441 11.5836C13.038 11.3755 13.0902 11.1508 13.0979 10.9224V10.8024ZM10.7175 10.8024C10.7175 10.6838 10.7524 10.5678 10.8178 10.4692C10.8832 10.3705 10.9762 10.2936 11.0849 10.2482C11.1936 10.2029 11.3133 10.191 11.4287 10.2141C11.5442 10.2373 11.6502 10.2944 11.7334 10.3783C11.8167 10.4622 11.8733 10.569 11.8963 10.6854C11.9193 10.8017 11.9075 10.9223 11.8624 11.0319C11.8174 11.1415 11.7411 11.2352 11.6433 11.3011C11.5454 11.367 11.4303 11.4022 11.3126 11.4022C11.2427 11.4106 11.1718 11.4049 11.104 11.3856C11.0362 11.3663 10.9728 11.3337 10.9175 11.2897C10.8623 11.2457 10.8161 11.1911 10.7818 11.1291C10.7475 11.0671 10.7257 10.9989 10.7175 10.9284C10.7116 10.8866 10.7116 10.8442 10.7175 10.8024Z" fill="black"/>
<path d="M14.2891 7.20361C14.2891 7.55949 14.3938 7.90739 14.5899 8.2033C14.7861 8.49921 15.0649 8.72984 15.3911 8.86604C15.7174 9.00223 16.0763 9.03786 16.4226 8.96843C16.769 8.899 17.0871 8.72763 17.3367 8.47598C17.5864 8.22432 17.7564 7.9037 17.8253 7.55465C17.8942 7.2056 17.8589 6.8438 17.7237 6.51501C17.5886 6.18621 17.3598 5.90518 17.0662 5.70746C16.7726 5.50974 16.4274 5.40421 16.0743 5.40421C15.8477 5.39619 15.6217 5.43329 15.4092 5.51338C15.1968 5.59346 15.0021 5.71497 14.8363 5.87094C14.6705 6.02692 14.5368 6.21431 14.4429 6.42239C14.349 6.63048 14.2967 6.85518 14.2891 7.08365V7.20361ZM16.6694 7.20361C16.6694 7.32224 16.6345 7.4382 16.5692 7.53684C16.5038 7.63547 16.4108 7.71235 16.3021 7.75775C16.1933 7.80315 16.0737 7.81503 15.9583 7.79188C15.8428 7.76874 15.7368 7.71161 15.6536 7.62773C15.5703 7.54385 15.5137 7.43697 15.4907 7.32062C15.4677 7.20427 15.4795 7.08367 15.5246 6.97407C15.5696 6.86447 15.6459 6.7708 15.7437 6.70489C15.8416 6.63898 15.9567 6.60381 16.0743 6.60381C16.1443 6.59544 16.2152 6.60107 16.283 6.62037C16.3508 6.63968 16.4142 6.67227 16.4694 6.71628C16.5247 6.7603 16.5708 6.81487 16.6052 6.87688C16.6395 6.93889 16.6613 7.00712 16.6694 7.07765C16.6754 7.11942 16.6754 7.16183 16.6694 7.20361Z" fill="black"/>
</svg>
