<svg width="16" height="15" viewBox="0 0 16 15" fill="none" xmlns="http://www.w3.org/2000/svg">
<path fill-rule="evenodd" clip-rule="evenodd" d="M0.531761 13.2672C0.333406 13.459 0.32172 13.7817 0.50566 13.9879C0.689599 14.1942 0.99951 14.2058 1.19786 14.0139L7.35279 8.06079L13.598 14.1013C13.7963 14.2931 14.1062 14.2815 14.2902 14.0753C14.4741 13.869 14.4624 13.5463 14.2641 13.3545L8.07187 7.36528L14.1292 1.50654C14.3275 1.31469 14.3392 0.991989 14.1553 0.785777C13.9713 0.579565 13.6614 0.567924 13.4631 0.759776L7.35279 6.66976L1.33278 0.847108C1.13443 0.655255 0.824517 0.666897 0.640577 0.873109C0.456638 1.07932 0.468324 1.40202 0.666679 1.59387L6.6337 7.36528L0.531761 13.2672Z" fill="black"/>
</svg>
