<svg width="21" height="22" viewBox="0 0 21 22" fill="none" xmlns="http://www.w3.org/2000/svg">
<path d="M17.0882 3.94097C16.1545 3.00565 15.0428 2.26398 13.8179 1.75908C12.5929 1.25418 11.2791 0.996122 9.95283 0.999919C8.4259 1.00311 6.91923 1.34718 5.54431 2.00668C4.16939 2.66618 2.9614 3.62422 2.00972 4.80992V3.5065C2.00972 3.37354 1.95653 3.24603 1.86185 3.15201C1.76717 3.058 1.63876 3.00518 1.50486 3.00518C1.37096 3.00518 1.24255 3.058 1.14787 3.15201C1.05319 3.24603 1 3.37354 1 3.5065V6.48097C1.00286 6.59206 1.03985 6.69961 1.10603 6.78922C1.17221 6.87883 1.26439 6.9462 1.37023 6.98229C1.46841 7.01565 1.57497 7.01565 1.67314 6.98229L4.56767 6.01308C4.63378 5.99452 4.69535 5.96266 4.74855 5.9195C4.80176 5.87633 4.84546 5.82276 4.87695 5.76213C4.90844 5.70149 4.92705 5.63508 4.93162 5.567C4.93619 5.49893 4.92662 5.43065 4.90351 5.3664C4.8804 5.30215 4.84425 5.2433 4.79728 5.1935C4.75032 5.14371 4.69355 5.10402 4.6305 5.07691C4.56745 5.0498 4.49947 5.03585 4.43076 5.03591C4.36205 5.03598 4.29409 5.05006 4.23109 5.07729L2.71652 5.5786C3.90479 4.02644 5.56739 2.89819 7.45541 2.36276C9.34344 1.82734 11.3553 1.91354 13.1899 2.60846C15.0245 3.30338 16.583 4.56963 17.6322 6.21767C18.6814 7.8657 19.1649 9.80685 19.0102 11.7505C18.8555 13.6942 18.0709 15.5358 16.774 16.9997C15.4771 18.4636 13.7376 19.471 11.8158 19.8712C9.89412 20.2713 7.89357 20.0426 6.1137 19.2193C4.33382 18.396 2.87036 17.0224 1.9424 15.3041C1.87507 15.1982 1.76976 15.1215 1.64773 15.0897C1.52571 15.0579 1.39606 15.0732 1.28497 15.1326C1.17388 15.192 1.08963 15.291 1.04923 15.4097C1.00883 15.5284 1.01529 15.6579 1.06731 15.772C1.9303 17.3668 3.21202 18.6998 4.77645 19.6295C6.34088 20.5592 8.12962 21.051 9.95283 21.0526C11.9486 21.0508 13.899 20.4618 15.5579 19.36C17.2167 18.2582 18.5095 16.6929 19.273 14.862C20.0365 13.031 20.2365 11.0164 19.8476 9.07263C19.4587 7.12887 18.4985 5.34314 17.0882 3.94097Z" fill="black" stroke="black" stroke-width="0.3"/>
<path d="M9.95235 12.5302C9.86937 12.5282 9.78828 12.5052 9.71675 12.4634L6.51931 9.28838C6.45708 9.26041 6.40131 9.22004 6.35546 9.16976C6.30961 9.11948 6.27466 9.06038 6.25279 8.99613C6.23092 8.93187 6.22259 8.86383 6.22832 8.79625C6.23405 8.72866 6.25372 8.66296 6.2861 8.60324C6.31849 8.54352 6.36289 8.49105 6.41657 8.4491C6.47024 8.40714 6.53202 8.3766 6.59809 8.35936C6.66415 8.34212 6.73308 8.33856 6.80059 8.34889C6.8681 8.35922 6.93274 8.38324 6.99051 8.41943L9.91869 11.4607L15.2029 7.11601C15.3204 7.05123 15.4581 7.03245 15.5889 7.06337C15.7197 7.09429 15.8341 7.17268 15.9097 7.28312C15.9458 7.33996 15.9701 7.40339 15.9812 7.46969C15.9922 7.53598 15.9899 7.60381 15.9742 7.66918C15.9585 7.73456 15.9298 7.79617 15.8899 7.85039C15.8499 7.90462 15.7994 7.95037 15.7414 7.98496L10.2216 12.4634C10.1379 12.5052 10.046 12.528 9.95235 12.5302Z" fill="black" stroke="black" stroke-width="0.3"/>
</svg>
