<svg width="19" height="24" viewBox="0 0 19 24" fill="none" xmlns="http://www.w3.org/2000/svg">
<g clip-path="url(#clip0_194_959)">
<path d="M2.6769 23.7619H16.3229C16.7003 23.7619 17.0735 23.6866 17.418 23.541C17.7624 23.3954 18.0703 23.1826 18.3214 22.9168C18.5726 22.651 18.7613 22.3381 18.8752 21.9986C18.9891 21.6592 19.0256 21.3008 18.9823 20.9471L17.1736 6.10354C17.1611 5.99878 17.1082 5.90202 17.0249 5.83181C16.9415 5.76159 16.8336 5.72285 16.7219 5.72299H2.27785C2.16625 5.7233 2.05864 5.7622 1.9754 5.83234C1.89216 5.90247 1.8391 5.99896 1.82622 6.10354L0.0174253 20.9471C-0.0258547 21.3008 0.0106615 21.6592 0.12456 21.9986C0.238459 22.3381 0.427154 22.651 0.6783 22.9168C0.929445 23.1826 1.23734 23.3954 1.58179 23.541C1.92623 23.6866 2.29944 23.7619 2.6769 23.7619V23.7619ZM16.3163 6.5813L18.0703 21.0463C18.0994 21.28 18.0757 21.5168 18.0008 21.7412C17.926 21.9655 17.8016 22.1724 17.636 22.3482C17.4703 22.5241 17.267 22.6648 17.0396 22.7612C16.8122 22.8577 16.5657 22.9076 16.3163 22.9077H2.67032C2.42116 22.9069 2.175 22.8566 1.94789 22.7599C1.72077 22.6633 1.51782 22.5225 1.35229 22.3469C1.18676 22.1712 1.06238 21.9646 0.987259 21.7405C0.912139 21.5164 0.887965 21.2798 0.916335 21.0463L2.67032 6.5813H16.3163Z" fill="black"/>
<path d="M5.16885 9.43542C5.2898 9.43542 5.40577 9.39011 5.4913 9.30944C5.57682 9.22876 5.62487 9.11933 5.62487 9.00524V4.75302C5.62487 4.2731 5.72509 3.79786 5.91978 3.35447C6.11447 2.91109 6.39983 2.50822 6.75957 2.16886C7.11932 1.82951 7.54639 1.56033 8.01642 1.37667C8.48645 1.19302 8.99023 1.09848 9.49899 1.09848C10.0077 1.09848 10.5115 1.19302 10.9815 1.37667C11.4516 1.56033 11.8786 1.82951 12.2384 2.16886C12.5981 2.50822 12.8835 2.91109 13.0782 3.35447C13.2729 3.79786 13.3731 4.2731 13.3731 4.75302V9.00524C13.3731 9.11933 13.4211 9.22876 13.5067 9.30944C13.5922 9.39011 13.7082 9.43542 13.8291 9.43542C13.9501 9.43542 14.0661 9.39011 14.1516 9.30944C14.2371 9.22876 14.2852 9.11933 14.2852 9.00524V4.75302C14.2852 3.55559 13.7809 2.4072 12.8833 1.56049C11.9857 0.713787 10.7684 0.238098 9.49899 0.238098C8.22962 0.238098 7.01223 0.713787 6.11465 1.56049C5.21707 2.4072 4.7128 3.55559 4.7128 4.75302V9.00524C4.7128 9.11933 4.76085 9.22876 4.84637 9.30944C4.9319 9.39011 5.0479 9.43542 5.16885 9.43542V9.43542Z" fill="black"/>
</g>
<defs>
<clipPath id="clip0_194_959">
<rect width="19" height="23.5238" fill="white" transform="matrix(-1 0 0 1 19 0.238098)"/>
</clipPath>
</defs>
</svg>
