<svg width="21" height="22" viewBox="0 0 21 22" fill="none" xmlns="http://www.w3.org/2000/svg">
<path d="M5.89372 0.999825C5.63584 0.999081 5.38035 1.0492 5.14196 1.14729C4.90356 1.24539 4.68696 1.38953 4.50461 1.57143C4.32226 1.75332 4.17776 1.96938 4.07942 2.20718C3.98107 2.44498 3.93083 2.69983 3.93158 2.95706C3.93345 3.50662 4.15369 4.03303 4.54401 4.42088H0.741275C0.675636 4.42698 0.614666 4.45738 0.570372 4.50609C0.526079 4.55479 0.501671 4.61828 0.501956 4.68404V9.42088C0.501956 9.49067 0.52975 9.55761 0.579226 9.60696C0.628701 9.65631 0.695804 9.68403 0.765773 9.68403H2.08486V20.7367C2.08486 20.8065 2.11265 20.8734 2.16213 20.9227C2.2116 20.9721 2.27871 20.9998 2.34868 20.9998H18.7053C18.7753 20.9998 18.8424 20.9721 18.8919 20.9227C18.9414 20.8734 18.9692 20.8065 18.9692 20.7367V9.68403H20.2882C20.3582 9.68403 20.4253 9.65631 20.4748 9.60696C20.5243 9.55761 20.5521 9.49067 20.5521 9.42088V4.68404C20.5521 4.61424 20.5243 4.54731 20.4748 4.49795C20.4253 4.4486 20.3582 4.42088 20.2882 4.42088H16.5124C16.9018 4.03264 17.1212 3.50629 17.1224 2.95706C17.1232 2.69983 17.0729 2.44498 16.9746 2.20718C16.8763 1.96938 16.7318 1.75332 16.5494 1.57143C16.3671 1.38953 16.1505 1.24539 15.9121 1.14729C15.6737 1.0492 15.4182 0.999081 15.1603 0.999825C13.9444 0.999825 13.0912 1.55622 12.3902 2.22492C11.7396 2.84569 11.1917 3.55575 10.527 4.08347C9.86228 3.55575 9.31439 2.84569 8.6638 2.22492C7.9628 1.55622 7.10916 0.999825 5.89372 0.999825ZM5.89372 1.52614C6.95276 1.52614 7.63679 1.97727 8.29304 2.60321C8.87391 3.15772 9.41238 3.85368 10.0983 4.42088H5.58044C5.56699 4.41711 5.55329 4.41429 5.53945 4.41242C4.93032 4.24325 4.45921 3.61355 4.45921 2.95565C4.45654 2.76707 4.49184 2.57987 4.563 2.40514C4.63416 2.23041 4.73975 2.0717 4.87351 1.9384C5.00727 1.80511 5.16649 1.69994 5.34173 1.62913C5.51697 1.55831 5.70467 1.52329 5.89372 1.52614ZM15.1603 1.52614C15.3495 1.52329 15.5373 1.55835 15.7126 1.62925C15.888 1.70015 16.0472 1.80545 16.181 1.93889C16.3148 2.07234 16.4204 2.23122 16.4914 2.40612C16.5625 2.58101 16.5977 2.76836 16.5948 2.95706C16.5948 3.61214 16.1237 4.24325 15.5146 4.41383C15.5062 4.41615 15.4981 4.41898 15.4901 4.42229H10.9557C11.6416 3.85509 12.1806 3.15913 12.761 2.60462C13.4177 1.97727 14.1013 1.52614 15.1603 1.52614ZM1.02723 4.94719H20.0221V9.15772H1.02723V4.94719ZM2.61249 9.68403H18.4415V20.4735H2.61249V9.68403Z" fill="black" stroke="black" stroke-width="0.3"/>
</svg>
